<?xml version="1.0" encoding="UTF-8"?>
<svg xmlns="http://www.w3.org/2000/svg" xmlns:xlink="http://www.w3.org/1999/xlink" width="176px" height="150px" viewBox="0 0 175 150" version="1.1">
<g id="surface1">
<path style=" stroke:none;fill-rule:nonzero;fill:rgb(11.372549%,11.372549%,10.588235%);fill-opacity:1;" d="M 127.019531 0.257812 C 100.558594 0.257812 79.042969 21.890625 79.042969 48.472656 C 79.042969 75.058594 100.566406 96.6875 127.019531 96.6875 C 153.476562 96.6875 175 75.058594 175 48.472656 C 175 21.890625 153.476562 0.257812 127.019531 0.257812 Z M 127.019531 67.011719 C 116.84375 67.011719 108.574219 58.699219 108.574219 48.472656 C 108.574219 38.246094 116.84375 29.933594 127.019531 29.933594 C 137.195312 29.933594 145.46875 38.246094 145.46875 48.472656 C 145.46875 58.699219 137.1875 67.011719 127.019531 67.011719 Z M 127.019531 67.011719 "/>
<path style=" stroke:none;fill-rule:nonzero;fill:rgb(11.372549%,11.372549%,10.588235%);fill-opacity:1;" d="M 24.46875 2.003906 L 0 2.003906 L 0 30.8125 L 24.46875 30.8125 C 34.644531 30.8125 42.917969 38.734375 42.917969 48.460938 C 42.917969 58.203125 34.644531 66.125 24.46875 66.125 L 0 66.125 L 0 94.929688 L 24.46875 94.941406 C 50.921875 94.941406 72.445312 74.09375 72.445312 48.472656 C 72.457031 22.851562 50.933594 2.003906 24.46875 2.003906 Z M 24.46875 2.003906 "/>
<path style=" stroke:none;fill-rule:nonzero;fill:rgb(11.372549%,11.372549%,10.588235%);fill-opacity:1;" d="M 0.472656 127.003906 L 0.472656 111.121094 L 6.203125 111.121094 C 10.957031 111.121094 14.136719 114.171875 14.136719 119.074219 C 14.136719 123.984375 10.949219 127.003906 6.171875 127.003906 Z M 6.039062 123.664062 C 8.46875 123.664062 10.453125 122.25 10.453125 119.074219 C 10.453125 115.890625 8.46875 114.460938 6.039062 114.460938 L 3.992188 114.460938 L 3.992188 123.675781 L 6.039062 123.675781 Z M 6.039062 123.664062 "/>
<path style=" stroke:none;fill-rule:nonzero;fill:rgb(11.372549%,11.372549%,10.588235%);fill-opacity:1;" d="M 18.058594 110.460938 C 19.167969 110.460938 20.0625 111.359375 20.0625 112.457031 C 20.0625 113.550781 19.167969 114.453125 18.058594 114.453125 C 16.988281 114.453125 16.09375 113.550781 16.09375 112.457031 C 16.09375 111.359375 16.988281 110.460938 18.058594 110.460938 Z M 16.378906 127.003906 L 16.378906 115.867188 L 19.765625 115.867188 L 19.765625 127.003906 Z M 16.378906 127.003906 "/>
<path style=" stroke:none;fill-rule:nonzero;fill:rgb(11.372549%,11.372549%,10.588235%);fill-opacity:1;" d="M 24.558594 123.324219 C 24.601562 124.089844 25.136719 124.824219 26.300781 124.824219 C 27.164062 124.824219 27.597656 124.359375 27.597656 123.863281 C 27.597656 123.457031 27.328125 123.117188 26.503906 122.941406 L 25.238281 122.652344 C 22.875 122.132812 21.9375 120.789062 21.9375 119.21875 C 21.9375 117.183594 23.714844 115.515625 26.195312 115.515625 C 29.40625 115.515625 30.519531 117.535156 30.632812 118.835938 L 27.820312 119.351562 C 27.730469 118.609375 27.265625 117.988281 26.238281 117.988281 C 25.589844 117.988281 25.035156 118.371094 25.035156 118.949219 C 25.035156 119.414062 25.414062 119.695312 25.898438 119.777344 L 27.371094 120.066406 C 29.664062 120.53125 30.785156 121.929688 30.785156 123.5625 C 30.785156 125.464844 29.335938 127.324219 26.371094 127.324219 C 22.894531 127.324219 21.78125 125.0625 21.691406 123.832031 Z M 24.558594 123.324219 "/>
<path style=" stroke:none;fill-rule:nonzero;fill:rgb(11.372549%,11.372549%,10.588235%);fill-opacity:1;" d="M 39.675781 120.542969 L 44.089844 126.996094 L 39.941406 126.996094 L 37.328125 123.074219 L 36.238281 124.265625 L 36.238281 126.996094 L 32.855469 126.996094 L 32.855469 110.769531 L 36.238281 110.769531 L 36.238281 119.601562 L 39.601562 115.859375 L 43.996094 115.859375 Z M 39.675781 120.542969 "/>
<path style=" stroke:none;fill-rule:nonzero;fill:rgb(11.372549%,11.372549%,10.588235%);fill-opacity:1;" d="M 52.578125 119.230469 C 52.199219 119.136719 51.835938 119.117188 51.507812 119.117188 C 50.148438 119.117188 48.925781 119.921875 48.925781 122.144531 L 48.925781 127.003906 L 45.539062 127.003906 L 45.539062 115.867188 L 48.824219 115.867188 L 48.824219 117.367188 C 49.398438 116.117188 50.808594 115.753906 51.703125 115.753906 C 52.042969 115.753906 52.371094 115.796875 52.597656 115.867188 L 52.597656 119.230469 Z M 52.578125 119.230469 "/>
<path style=" stroke:none;fill-rule:nonzero;fill:rgb(11.372549%,11.372549%,10.588235%);fill-opacity:1;" d="M 55.828125 110.460938 C 56.941406 110.460938 57.835938 111.359375 57.835938 112.457031 C 57.835938 113.550781 56.941406 114.453125 55.828125 114.453125 C 54.757812 114.453125 53.863281 113.550781 53.863281 112.457031 C 53.863281 111.359375 54.757812 110.460938 55.828125 110.460938 Z M 54.152344 127.003906 L 54.152344 115.867188 L 57.539062 115.867188 L 57.539062 127.003906 Z M 54.152344 127.003906 "/>
<path style=" stroke:none;fill-rule:nonzero;fill:rgb(11.372549%,11.372549%,10.588235%);fill-opacity:1;" d="M 60.222656 127.003906 L 60.222656 115.867188 L 63.453125 115.867188 L 63.453125 117.140625 C 64.007812 116.160156 65.441406 115.527344 66.644531 115.527344 C 68.226562 115.527344 69.359375 116.179688 69.925781 117.273438 C 70.800781 116.023438 71.871094 115.527344 73.363281 115.527344 C 75.460938 115.527344 77.46875 116.757812 77.46875 119.789062 L 77.46875 127.003906 L 74.1875 127.003906 L 74.1875 120.550781 C 74.1875 119.496094 73.628906 118.671875 72.425781 118.671875 C 71.222656 118.671875 70.574219 119.589844 70.574219 120.574219 L 70.574219 127.003906 L 67.230469 127.003906 L 67.230469 120.550781 C 67.230469 119.496094 66.675781 118.671875 65.449219 118.671875 C 64.265625 118.671875 63.617188 119.589844 63.617188 120.59375 L 63.617188 127.003906 Z M 60.222656 127.003906 "/>
<path style=" stroke:none;fill-rule:nonzero;fill:rgb(11.372549%,11.372549%,10.588235%);fill-opacity:1;" d="M 81.75 110.460938 C 82.859375 110.460938 83.753906 111.359375 83.753906 112.457031 C 83.753906 113.550781 82.859375 114.453125 81.75 114.453125 C 80.679688 114.453125 79.78125 113.550781 79.78125 112.457031 C 79.78125 111.359375 80.679688 110.460938 81.75 110.460938 Z M 80.082031 127.003906 L 80.082031 115.867188 L 83.464844 115.867188 L 83.464844 127.003906 Z M 80.082031 127.003906 "/>
<path style=" stroke:none;fill-rule:nonzero;fill:rgb(11.372549%,11.372549%,10.588235%);fill-opacity:1;" d="M 89.539062 127.003906 L 86.152344 127.003906 L 86.152344 115.867188 L 89.433594 115.867188 L 89.433594 117.140625 C 90.042969 116.085938 91.398438 115.570312 92.53125 115.570312 C 95.320312 115.570312 96.566406 117.5625 96.566406 120.003906 L 96.566406 126.996094 L 93.179688 126.996094 L 93.179688 120.582031 C 93.179688 119.488281 92.601562 118.660156 91.367188 118.660156 C 90.257812 118.660156 89.539062 119.488281 89.539062 120.613281 Z M 89.539062 127.003906 "/>
<path style=" stroke:none;fill-rule:nonzero;fill:rgb(11.372549%,11.372549%,10.588235%);fill-opacity:1;" d="M 109.355469 123.800781 C 108.820312 125.722656 107.058594 127.335938 104.25 127.335938 C 101.195312 127.335938 98.480469 125.144531 98.480469 121.402344 C 98.480469 117.8125 101.132812 115.527344 104.003906 115.527344 C 107.441406 115.527344 109.558594 117.65625 109.558594 121.246094 C 109.558594 121.722656 109.519531 122.226562 109.488281 122.300781 L 101.769531 122.300781 C 101.84375 123.550781 102.976562 124.449219 104.292969 124.449219 C 105.515625 124.449219 106.207031 123.871094 106.523438 122.992188 Z M 106.277344 120.097656 C 106.238281 119.25 105.648438 118.214844 104.046875 118.214844 C 102.613281 118.214844 101.90625 119.269531 101.84375 120.097656 Z M 106.277344 120.097656 "/>
<path style=" stroke:none;fill-rule:nonzero;fill:rgb(11.372549%,11.372549%,10.588235%);fill-opacity:1;" d="M 118.65625 119.230469 C 118.273438 119.136719 117.925781 119.117188 117.585938 119.117188 C 116.226562 119.117188 115.003906 119.921875 115.003906 122.144531 L 115.003906 127.003906 L 111.617188 127.003906 L 111.617188 115.867188 L 114.898438 115.867188 L 114.898438 117.367188 C 115.476562 116.117188 116.886719 115.753906 117.769531 115.753906 C 118.109375 115.753906 118.441406 115.796875 118.667969 115.867188 L 118.667969 119.230469 Z M 118.65625 119.230469 "/>
<path style=" stroke:none;fill-rule:nonzero;fill:rgb(11.372549%,11.372549%,10.588235%);fill-opacity:1;" d="M 121.90625 110.460938 C 123.019531 110.460938 123.914062 111.359375 123.914062 112.457031 C 123.914062 113.550781 123.019531 114.453125 121.90625 114.453125 C 120.835938 114.453125 119.941406 113.550781 119.941406 112.457031 C 119.941406 111.359375 120.835938 110.460938 121.90625 110.460938 Z M 120.242188 127.003906 L 120.242188 115.867188 L 123.625 115.867188 L 123.625 127.003906 Z M 120.242188 127.003906 "/>
<path style=" stroke:none;fill-rule:nonzero;fill:rgb(11.372549%,11.372549%,10.588235%);fill-opacity:1;" d="M 129.695312 127.003906 L 126.3125 127.003906 L 126.3125 115.867188 L 129.59375 115.867188 L 129.59375 117.140625 C 130.191406 116.085938 131.558594 115.570312 132.691406 115.570312 C 135.480469 115.570312 136.722656 117.5625 136.722656 120.003906 L 136.722656 126.996094 L 133.339844 126.996094 L 133.339844 120.582031 C 133.339844 119.488281 132.761719 118.660156 131.527344 118.660156 C 130.417969 118.660156 129.695312 119.488281 129.695312 120.613281 Z M 129.695312 127.003906 "/>
<path style=" stroke:none;fill-rule:nonzero;fill:rgb(11.372549%,11.372549%,10.588235%);fill-opacity:1;" d="M 141.589844 126.777344 C 141.816406 127.851562 142.703125 128.636719 143.976562 128.636719 C 145.675781 128.636719 146.726562 127.8125 146.726562 125.796875 L 146.726562 125.277344 C 146.324219 125.878906 145.367188 126.527344 143.761719 126.527344 C 140.820312 126.527344 138.605469 124.203125 138.605469 121.109375 C 138.605469 118.175781 140.726562 115.660156 143.761719 115.660156 C 145.574219 115.660156 146.53125 116.46875 146.839844 117.046875 L 146.839844 115.859375 L 150.070312 115.859375 L 150.070312 125.609375 C 150.070312 128.8125 148.289062 131.597656 144.140625 131.597656 C 140.953125 131.597656 138.925781 129.621094 138.617188 127.625 Z M 146.746094 121.109375 C 146.746094 119.589844 145.65625 118.648438 144.378906 118.648438 C 143.101562 118.648438 141.992188 119.589844 141.992188 121.109375 C 141.992188 122.632812 143.019531 123.570312 144.378906 123.570312 C 145.769531 123.570312 146.746094 122.632812 146.746094 121.109375 Z M 146.746094 121.109375 "/>
<path style=" stroke:none;fill-rule:nonzero;fill:rgb(11.372549%,11.372549%,10.588235%);fill-opacity:1;" d="M 154.84375 123.324219 C 154.882812 124.089844 155.417969 124.824219 156.582031 124.824219 C 157.457031 124.824219 157.878906 124.359375 157.878906 123.863281 C 157.878906 123.457031 157.609375 123.117188 156.789062 122.941406 L 155.511719 122.652344 C 153.144531 122.132812 152.210938 120.789062 152.210938 119.21875 C 152.210938 117.183594 153.988281 115.515625 156.46875 115.515625 C 159.679688 115.515625 160.789062 117.535156 160.902344 118.835938 L 158.09375 119.351562 C 158.003906 118.609375 157.539062 117.988281 156.511719 117.988281 C 155.863281 117.988281 155.304688 118.371094 155.304688 118.949219 C 155.304688 119.414062 155.6875 119.695312 156.179688 119.777344 L 157.652344 120.066406 C 159.945312 120.53125 161.066406 121.929688 161.066406 123.5625 C 161.066406 125.464844 159.617188 127.324219 156.652344 127.324219 C 153.175781 127.324219 152.066406 125.0625 151.972656 123.832031 Z M 154.84375 123.324219 "/>
<path style=" stroke:none;fill-rule:nonzero;fill:rgb(11.372549%,11.372549%,10.588235%);fill-opacity:1;" d="M 11.769531 143.828125 C 11.769531 147.28125 9.207031 149.742188 5.886719 149.742188 C 2.582031 149.742188 0 147.28125 0 143.828125 C 0 140.375 2.582031 137.933594 5.886719 137.933594 C 9.207031 137.933594 11.769531 140.375 11.769531 143.828125 Z M 8.386719 143.828125 C 8.386719 141.945312 7.183594 141.066406 5.886719 141.066406 C 4.621094 141.066406 3.386719 141.945312 3.386719 143.828125 C 3.386719 145.6875 4.609375 146.609375 5.886719 146.609375 C 7.183594 146.597656 8.386719 145.710938 8.386719 143.828125 Z M 8.386719 143.828125 "/>
<path style=" stroke:none;fill-rule:nonzero;fill:rgb(11.372549%,11.372549%,10.588235%);fill-opacity:1;" d="M 13.796875 149.402344 L 13.796875 138.265625 L 17.027344 138.265625 L 17.027344 139.535156 C 17.585938 138.554688 19.015625 137.925781 20.21875 137.925781 C 21.804688 137.925781 22.933594 138.574219 23.5 139.671875 C 24.375 138.421875 25.445312 137.925781 26.9375 137.925781 C 29.035156 137.925781 31.042969 139.152344 31.042969 142.183594 L 31.042969 149.402344 L 27.761719 149.402344 L 27.761719 142.949219 C 27.761719 141.894531 27.203125 141.066406 26 141.066406 C 24.796875 141.066406 24.148438 141.988281 24.148438 142.96875 L 24.148438 149.402344 L 20.804688 149.402344 L 20.804688 142.949219 C 20.804688 141.894531 20.25 141.066406 19.023438 141.066406 C 17.839844 141.066406 17.195312 141.988281 17.195312 142.992188 L 17.195312 149.402344 Z M 13.796875 149.402344 "/>
<path style=" stroke:none;fill-rule:nonzero;fill:rgb(11.372549%,11.372549%,10.588235%);fill-opacity:1;" d="M 33.667969 149.402344 L 33.667969 133.179688 L 36.988281 133.179688 L 36.988281 139.320312 C 37.464844 138.628906 38.6875 137.996094 40.199219 137.996094 C 43.410156 137.996094 45.355469 140.457031 45.355469 143.796875 C 45.355469 147.199219 43.171875 149.648438 40.066406 149.648438 C 38.59375 149.648438 37.453125 148.996094 36.949219 148.148438 L 36.949219 149.402344 Z M 39.46875 141.066406 C 38.152344 141.066406 36.949219 141.945312 36.949219 143.828125 C 36.949219 145.667969 38.152344 146.609375 39.46875 146.609375 C 40.785156 146.609375 41.96875 145.6875 41.96875 143.828125 C 41.960938 141.945312 40.785156 141.066406 39.46875 141.066406 Z M 39.46875 141.066406 "/>
<path style=" stroke:none;fill-rule:nonzero;fill:rgb(11.372549%,11.372549%,10.588235%);fill-opacity:1;" d="M 54.429688 148.285156 C 53.855469 149.246094 52.578125 149.648438 51.46875 149.648438 C 48.769531 149.648438 47.25 147.675781 47.25 145.304688 L 47.25 138.277344 L 50.632812 138.277344 L 50.632812 144.59375 C 50.632812 145.667969 51.210938 146.515625 52.414062 146.515625 C 53.554688 146.515625 54.265625 145.730469 54.265625 144.613281 L 54.265625 138.277344 L 57.652344 138.277344 L 57.652344 147.414062 C 57.652344 148.429688 57.742188 149.234375 57.765625 149.410156 L 54.511719 149.410156 C 54.472656 149.203125 54.429688 148.574219 54.429688 148.285156 Z M 54.429688 148.285156 "/>
<path style=" stroke:none;fill-rule:nonzero;fill:rgb(11.372549%,11.372549%,10.588235%);fill-opacity:1;" d="M 71.367188 147.40625 C 71.367188 148.417969 71.429688 149.152344 71.460938 149.402344 L 68.207031 149.402344 C 68.1875 149.265625 68.113281 148.769531 68.113281 148.324219 C 67.601562 149.089844 66.488281 149.648438 65.152344 149.648438 C 62.035156 149.648438 59.667969 147.230469 59.667969 143.796875 C 59.667969 140.476562 61.898438 137.996094 65.039062 137.996094 C 66.933594 137.996094 67.753906 138.710938 68.023438 139.144531 L 68.023438 133.1875 L 71.367188 133.1875 Z M 65.574219 146.597656 C 66.890625 146.597656 68.074219 145.65625 68.074219 143.816406 C 68.074219 141.957031 66.890625 141.058594 65.574219 141.058594 C 64.257812 141.058594 63.074219 141.957031 63.074219 143.816406 C 63.074219 145.65625 64.257812 146.597656 65.574219 146.597656 Z M 65.574219 146.597656 "/>
<path style=" stroke:none;fill-rule:nonzero;fill:rgb(11.372549%,11.372549%,10.588235%);fill-opacity:1;" d="M 76.210938 145.730469 C 76.253906 146.496094 76.789062 147.230469 77.953125 147.230469 C 78.816406 147.230469 79.246094 146.765625 79.246094 146.269531 C 79.246094 145.863281 78.980469 145.523438 78.15625 145.347656 L 76.890625 145.058594 C 74.523438 144.542969 73.589844 143.195312 73.589844 141.625 C 73.589844 139.589844 75.367188 137.925781 77.847656 137.925781 C 81.058594 137.925781 82.171875 139.941406 82.285156 141.242188 L 79.472656 141.761719 C 79.382812 141.015625 78.917969 140.394531 77.890625 140.394531 C 77.242188 140.394531 76.6875 140.777344 76.6875 141.355469 C 76.6875 141.820312 77.066406 142.101562 77.550781 142.183594 L 79.023438 142.472656 C 81.316406 142.9375 82.4375 144.335938 82.4375 145.96875 C 82.4375 147.871094 80.988281 149.730469 78.023438 149.730469 C 74.546875 149.730469 73.433594 147.46875 73.34375 146.238281 Z M 76.210938 145.730469 "/>
<path style=" stroke:none;fill-rule:nonzero;fill:rgb(11.372549%,11.372549%,10.588235%);fill-opacity:1;" d="M 84.496094 149.402344 L 84.496094 138.265625 L 87.726562 138.265625 L 87.726562 139.535156 C 88.28125 138.554688 89.710938 137.925781 90.917969 137.925781 C 92.5 137.925781 93.632812 138.574219 94.199219 139.671875 C 95.074219 138.421875 96.144531 137.925781 97.636719 137.925781 C 99.734375 137.925781 101.742188 139.152344 101.742188 142.183594 L 101.742188 149.402344 L 98.457031 149.402344 L 98.457031 142.949219 C 98.457031 141.894531 97.902344 141.066406 96.699219 141.066406 C 95.496094 141.066406 94.847656 141.988281 94.847656 142.96875 L 94.847656 149.402344 L 91.503906 149.402344 L 91.503906 142.949219 C 91.503906 141.894531 90.945312 141.066406 89.722656 141.066406 C 88.539062 141.066406 87.890625 141.988281 87.890625 142.992188 L 87.890625 149.402344 Z M 84.496094 149.402344 "/>
<path style=" stroke:none;fill-rule:nonzero;fill:rgb(11.372549%,11.372549%,10.588235%);fill-opacity:1;" d="M 107.050781 142.96875 L 109.664062 142.566406 C 110.261719 142.472656 110.464844 142.183594 110.464844 141.800781 C 110.464844 141.148438 109.910156 140.589844 108.839844 140.589844 C 107.65625 140.589844 107.007812 141.398438 106.945312 142.226562 L 104.003906 141.625 C 104.136719 140.03125 105.609375 137.925781 108.859375 137.925781 C 112.453125 137.925781 113.769531 139.941406 113.769531 142.226562 L 113.769531 147.675781 C 113.769531 148.554688 113.882812 149.289062 113.902344 149.402344 L 110.847656 149.402344 C 110.824219 149.308594 110.734375 148.90625 110.734375 148.148438 C 110.15625 149.089844 109.085938 149.722656 107.617188 149.722656 C 105.1875 149.722656 103.777344 148.109375 103.777344 146.339844 C 103.777344 144.367188 105.226562 143.238281 107.050781 142.96875 Z M 110.464844 145.039062 L 110.464844 144.542969 L 108.367188 144.882812 C 107.65625 144.996094 107.121094 145.328125 107.121094 146.113281 C 107.121094 146.691406 107.503906 147.261719 108.4375 147.261719 C 109.4375 147.25 110.464844 146.753906 110.464844 145.039062 Z M 110.464844 145.039062 "/>
<path style=" stroke:none;fill-rule:nonzero;fill:rgb(11.372549%,11.372549%,10.588235%);fill-opacity:1;" d="M 119.746094 149.402344 L 116.363281 149.402344 L 116.363281 138.265625 L 119.644531 138.265625 L 119.644531 139.535156 C 120.242188 138.480469 121.609375 137.964844 122.742188 137.964844 C 125.527344 137.964844 126.773438 139.960938 126.773438 142.402344 L 126.773438 149.390625 L 123.390625 149.390625 L 123.390625 142.980469 C 123.390625 141.882812 122.8125 141.058594 121.578125 141.058594 C 120.46875 141.058594 119.746094 141.882812 119.746094 143.011719 Z M 119.746094 149.402344 "/>
<path style=" stroke:none;fill-rule:nonzero;fill:rgb(11.372549%,11.372549%,10.588235%);fill-opacity:1;" d="M 132.78125 149.402344 L 129.398438 149.402344 L 129.398438 138.265625 L 132.679688 138.265625 L 132.679688 139.535156 C 133.277344 138.480469 134.644531 137.964844 135.777344 137.964844 C 138.566406 137.964844 139.8125 139.960938 139.8125 142.402344 L 139.8125 149.390625 L 136.425781 149.390625 L 136.425781 142.980469 C 136.425781 141.882812 135.847656 141.058594 134.613281 141.058594 C 133.503906 141.058594 132.78125 141.882812 132.78125 143.011719 Z M 132.78125 149.402344 "/>
<path style=" stroke:none;fill-rule:nonzero;fill:rgb(11.372549%,11.372549%,10.588235%);fill-opacity:1;" d="M 152.601562 146.195312 C 152.066406 148.117188 150.304688 149.730469 147.496094 149.730469 C 144.441406 149.730469 141.722656 147.539062 141.722656 143.796875 C 141.722656 140.207031 144.378906 137.925781 147.25 137.925781 C 150.6875 137.925781 152.804688 140.054688 152.804688 143.640625 C 152.804688 144.117188 152.765625 144.625 152.746094 144.695312 L 145.027344 144.695312 C 145.097656 145.949219 146.230469 146.847656 147.546875 146.847656 C 148.773438 146.847656 149.460938 146.269531 149.78125 145.390625 Z M 149.523438 142.503906 C 149.484375 141.65625 148.894531 140.621094 147.289062 140.621094 C 145.859375 140.621094 145.152344 141.675781 145.089844 142.503906 Z M 149.523438 142.503906 "/>
<path style=" stroke:none;fill-rule:nonzero;fill:rgb(11.372549%,11.372549%,10.588235%);fill-opacity:1;" d="M 158.25 149.402344 L 154.863281 149.402344 L 154.863281 138.265625 L 158.144531 138.265625 L 158.144531 139.535156 C 158.742188 138.480469 160.113281 137.964844 161.242188 137.964844 C 164.03125 137.964844 165.277344 139.960938 165.277344 142.402344 L 165.277344 149.390625 L 161.890625 149.390625 L 161.890625 142.980469 C 161.890625 141.882812 161.316406 141.058594 160.082031 141.058594 C 158.96875 141.058594 158.25 141.882812 158.25 143.011719 Z M 158.25 149.402344 "/>
</g>
</svg>
